<svg xmlns="http://www.w3.org/2000/svg" viewBox="0 0 512 512" height="512" width="512">
  <rect fill="#70f" x="0" y="0" width="100%" height="100%" rx="10%"></rect>
  <path fill="#fff" d="M 180.5 337.25 v -12.75 c 0 -16.5 9.75 -30.75 24 -39.75 c -12.75 -5.25 -24 -12.75 -34.5 -21.75 c -17.25 15.75 -28.5 37.5 -28.5 61.5 v 12.75 a 57.75 57.75 90 1 0 39 0 z m -19.5 73.5 a 19.5 19.5 90 0 1 0 -38.25 a 19.5 19.5 90 0 1 0 38.25 z m 172.5 -234 v 6.75 c 0 18.75 -9.75 35.25 -25.5 45 c 12.75 5.25 24.75 12.75 35.25 21.75 c 18 -17.25 29.25 -40.5 29.25 -66.75 v -6.75 a 57.75 57.75 90 1 0 -39 0 z m 19.5 -73.5 a 19.5 19.5 90 0 1 0 38.25 a 19.5 19.5 90 0 1 0 -38.25 z m 18 234 c -8.25 -56.25 -56.25 -99.75 -114 -99.75 c -37.5 0 -68.25 -26.25 -75 -61.5 a 57.75 57.75 90 1 0 -39 0.75 c 8.25 56.25 56.25 99.75 114 99.75 c 37.5 0 68.25 26.25 75 61.5 a 57.75 57.75 90 1 0 39 -0.75 z M 161 103.25 a 19.5 19.5 90 0 1 0 38.25 a 19.5 19.5 90 0 1 0 -38.25 z m 192 307.5 a 19.5 19.5 90 0 1 0 -38.25 a 19.5 19.5 90 0 1 0 38.25 z"/>
</svg>