<svg xmlns="http://www.w3.org/2000/svg" viewBox="0 0 750 750" width="750" height="750">
  <rect fill="#70f" x="0" y="0" width="100%" height="100%" rx="10%"></rect>
  <g transform="translate(0,-22.5)">
  <path fill="#fff" d="M359 455 360 536V550L361 552V570 604 627L370 651 372 658 381 675 394 684 398 685H410 415L427 679 429 678 441 670 464 650 497 606 506 591 544 516 562 472 579 422M579 422 589 389 604 333 611 299 618 266 624 225 624 146 616 124 612 120 603 116H597L569 129 542 152 532 161 453 246 322 467"/>
  <path fill="#fff" d="M224 615 192 557 171 509 164 491 142 432 129 388 111 319 102 273 97 240 93 210 91 183V166 152L95 135 97 130 105 117 113 112H123L134 116 151 127 165 138 189 160 209 180 233 206 296 284 343 344 373 394 418 473 356 632 340 668 321 688 294 691 270 674 236 637"/>
  </g>
</svg>