<svg xmlns="http://www.w3.org/2000/svg" viewBox="0 0 764 764">
  <rect width="764" height="764" fill="#70f" ry="50"/>
  <path fill="#fff" transform="translate(0,300)" fill-rule="evenodd" d="M144 3h97l9-1v37c-7-9-14-11-29-11h-17v41h28l9-1v35c-4-6-9-9-21-9h-16v48c8 3 18 4 28 4 19 0 30-3 41-14l-10 38H142c12-9 11-18 11-33V37c0-14 1-24-9-32l-9 37c-4-7-8-12-21-12l-17 2v104c0 15 3 24 13 34H36c13-8 12-19 12-33V32l-16-1C16 31 7 38 0 42L11 3h107l27-1-1 1Zm251-1-9 40c-4-7-8-12-21-12l-16 2v104c0 15 3 24 13 34h-75c12-8 12-19 12-33V32l-15-1c-16 0-26 7-32 11l11-39h106l26-1Zm-24 165 40 3c19-1 25-4 38-23l27-49v39c0 14 1 24-12 33h74c-10-7-12-15-12-27V31c0-12 1-20 12-28h-89c-34 0-54 20-54 43 0 19 11 32 33 42l-34 53c-8 12-14 17-23 26ZM475 26v57c-18-3-29-15-29-34 0-10 8-23 27-23h2Zm136 11v100c0 14-1 24 12 33h-75c13-8 12-18 12-33V37c0-15 1-25-12-34h75c-13 9-12 19-12 34ZM743 8v29c-14-8-27-12-41-12-13 0-23 7-23 16 0 8 5 13 17 17 18 8 35 14 49 26 13 11 18 21 18 37 0 29-26 52-76 52-19 0-36-2-54-9l-9-36c18 13 39 20 59 20 19 0 29-8 29-18s-6-15-19-21c-22-10-39-17-50-26-10-8-16-21-16-33 0-31 28-50 64-50 14 0 31 1 52 8Z"/>
</svg>